<svg id="svg" version="1.1" xmlns="http://www.w3.org/2000/svg" xmlns:xlink="http://www.w3.org/1999/xlink" width="400" height="183.8638045891932" viewBox="0, 0, 400,183.8638045891932"><g id="svgg"><path id="path0" d="M82.943 52.171 C 82.487 52.208,81.949 52.313,81.747 52.404 C 81.545 52.494,81.007 52.616,80.552 52.675 C 79.324 52.833,79.104 52.881,78.963 53.021 C 78.893 53.092,78.642 53.149,78.406 53.149 C 78.170 53.149,77.977 53.225,77.977 53.317 C 77.977 53.409,77.646 53.541,77.242 53.609 C 76.838 53.677,76.461 53.809,76.404 53.901 C 76.347 53.993,76.139 54.069,75.943 54.069 C 75.747 54.069,75.586 54.143,75.586 54.233 C 75.586 54.323,75.359 54.454,75.082 54.523 C 74.805 54.593,74.536 54.705,74.485 54.773 C 74.343 54.959,73.697 55.353,73.333 55.475 C 73.156 55.534,73.011 55.656,73.011 55.746 C 73.011 55.835,72.928 55.908,72.826 55.908 C 72.422 55.908,70.691 57.318,69.388 58.707 C 69.267 58.836,69.060 59.036,68.928 59.151 C 68.797 59.266,68.483 59.624,68.230 59.947 C 67.977 60.270,67.625 60.706,67.448 60.916 C 67.271 61.126,67.126 61.409,67.126 61.545 C 67.126 61.682,67.048 61.793,66.951 61.793 C 66.855 61.793,66.630 62.103,66.452 62.483 C 66.274 62.862,66.022 63.282,65.892 63.415 C 65.762 63.549,65.655 63.777,65.655 63.921 C 65.655 64.066,65.592 64.184,65.515 64.184 C 65.344 64.184,64.736 65.549,64.736 65.932 C 64.736 66.083,64.654 66.207,64.554 66.207 C 64.454 66.207,64.319 66.538,64.255 66.943 C 64.190 67.347,64.065 67.678,63.976 67.678 C 63.888 67.678,63.816 67.885,63.816 68.138 C 63.816 68.391,63.747 68.598,63.663 68.598 C 63.579 68.598,63.505 68.701,63.500 68.828 C 63.495 68.954,63.389 69.430,63.265 69.885 C 63.140 70.340,62.949 71.313,62.839 72.046 C 62.730 72.779,62.573 73.379,62.492 73.379 C 62.411 73.379,62.345 73.788,62.345 74.288 C 62.345 74.788,62.262 75.248,62.161 75.310 C 62.040 75.385,61.977 81.197,61.977 92.149 C 61.977 103.176,62.040 108.874,62.161 108.874 C 62.262 108.874,62.345 109.241,62.345 109.690 C 62.345 110.139,62.417 110.551,62.505 110.606 C 62.592 110.660,62.721 111.203,62.790 111.812 C 62.858 112.421,62.984 112.920,63.069 112.920 C 63.153 112.920,63.278 113.290,63.346 113.743 C 63.414 114.196,63.548 114.614,63.643 114.673 C 63.738 114.732,63.816 114.982,63.816 115.229 C 63.816 115.476,63.892 115.678,63.985 115.678 C 64.079 115.678,64.209 115.926,64.276 116.230 C 64.343 116.533,64.453 116.783,64.520 116.784 C 64.588 116.785,64.802 117.116,64.995 117.519 C 65.188 117.923,65.407 118.253,65.481 118.253 C 65.555 118.253,65.667 118.460,65.731 118.713 C 65.794 118.966,65.927 119.172,66.026 119.172 C 66.126 119.172,66.207 119.279,66.207 119.408 C 66.207 119.948,70.781 124.725,71.523 124.960 C 71.735 125.027,71.908 125.159,71.908 125.254 C 71.908 125.348,72.023 125.425,72.164 125.425 C 72.305 125.425,72.461 125.531,72.511 125.661 C 72.560 125.790,72.921 126.059,73.312 126.258 C 73.703 126.458,74.279 126.807,74.592 127.034 C 74.905 127.262,75.257 127.448,75.374 127.448 C 75.491 127.448,75.586 127.531,75.586 127.632 C 75.586 128.076,78.048 127.296,78.529 126.699 C 78.579 126.637,78.868 126.525,79.171 126.451 C 79.473 126.376,79.763 126.260,79.814 126.192 C 79.956 126.007,80.602 125.613,80.966 125.490 C 81.143 125.431,81.287 125.309,81.287 125.220 C 81.287 125.131,81.399 125.057,81.536 125.057 C 81.673 125.057,81.990 124.871,82.239 124.644 C 82.488 124.416,82.976 124.026,83.323 123.777 C 83.965 123.316,87.213 120.123,87.733 119.443 C 87.890 119.238,88.386 118.576,88.837 117.972 C 89.287 117.368,89.759 116.764,89.885 116.631 C 90.011 116.497,90.115 116.278,90.115 116.144 C 90.115 116.011,90.239 115.854,90.391 115.796 C 90.543 115.737,90.667 115.563,90.667 115.408 C 90.667 115.253,90.749 115.126,90.851 115.126 C 90.952 115.126,91.034 115.012,91.034 114.873 C 91.034 114.734,91.159 114.517,91.310 114.391 C 91.462 114.265,91.586 114.006,91.586 113.817 C 91.586 113.627,91.669 113.471,91.770 113.471 C 91.871 113.471,91.954 113.353,91.954 113.209 C 91.954 113.064,92.058 112.836,92.184 112.703 C 92.311 112.569,92.580 112.129,92.782 111.724 C 92.984 111.320,93.195 110.947,93.251 110.897 C 93.415 110.748,93.977 109.480,93.977 109.260 C 93.977 109.148,94.052 109.057,94.145 109.057 C 94.237 109.057,94.368 108.726,94.437 108.322 C 94.505 107.917,94.637 107.586,94.729 107.586 C 94.821 107.586,94.897 107.462,94.897 107.310 C 94.897 107.159,94.972 107.034,95.064 107.034 C 95.157 107.034,95.288 106.703,95.356 106.299 C 95.425 105.894,95.549 105.563,95.632 105.563 C 95.716 105.563,95.840 105.232,95.908 104.828 C 95.976 104.423,96.108 104.092,96.200 104.092 C 96.292 104.092,96.368 103.885,96.368 103.632 C 96.368 103.379,96.443 103.172,96.536 103.172 C 96.628 103.172,96.759 102.841,96.828 102.437 C 96.896 102.032,97.020 101.701,97.102 101.701 C 97.185 101.701,97.310 101.287,97.379 100.782 C 97.449 100.276,97.581 99.862,97.672 99.862 C 97.764 99.862,97.839 99.655,97.839 99.402 C 97.839 99.149,97.922 98.943,98.023 98.943 C 98.124 98.943,98.193 98.880,98.175 98.805 C 98.100 98.476,98.448 96.920,98.596 96.920 C 98.685 96.920,98.759 96.718,98.759 96.471 C 98.759 96.224,98.834 95.975,98.925 95.919 C 99.017 95.862,99.149 95.402,99.218 94.897 C 99.288 94.391,99.412 93.936,99.494 93.885 C 99.576 93.834,99.701 93.379,99.770 92.873 C 99.840 92.368,99.972 91.954,100.063 91.954 C 100.155 91.954,100.230 91.763,100.230 91.529 C 100.230 91.296,100.351 90.944,100.500 90.748 C 100.648 90.551,100.773 90.246,100.776 90.069 C 100.779 89.892,100.864 89.747,100.966 89.747 C 101.067 89.747,101.149 89.624,101.149 89.473 C 101.149 89.089,101.758 87.724,101.928 87.724 C 102.006 87.724,102.072 87.621,102.075 87.494 C 102.079 87.368,102.241 86.933,102.437 86.529 C 102.632 86.124,102.795 85.648,102.798 85.471 C 102.802 85.294,102.887 85.149,102.989 85.149 C 103.090 85.149,103.172 85.025,103.172 84.874 C 103.172 84.722,103.251 84.598,103.348 84.598 C 103.445 84.598,103.578 84.308,103.644 83.954 C 103.711 83.600,103.832 83.310,103.914 83.310 C 103.996 83.310,104.117 83.062,104.184 82.759 C 104.251 82.455,104.381 82.207,104.474 82.207 C 104.567 82.207,104.644 82.083,104.644 81.931 C 104.644 81.779,104.723 81.655,104.819 81.655 C 104.916 81.655,105.049 81.366,105.116 81.011 C 105.182 80.657,105.304 80.368,105.386 80.368 C 105.469 80.368,105.683 80.037,105.861 79.632 C 106.040 79.228,106.246 78.897,106.320 78.897 C 106.393 78.897,106.508 78.648,106.575 78.345 C 106.641 78.041,106.759 77.793,106.836 77.793 C 106.912 77.793,107.133 77.463,107.327 77.060 C 107.520 76.656,107.740 76.325,107.816 76.324 C 107.892 76.323,107.954 76.210,107.954 76.074 C 107.954 75.937,108.202 75.483,108.506 75.064 C 108.809 74.645,109.057 74.219,109.057 74.117 C 109.057 74.015,109.140 73.931,109.241 73.931 C 109.343 73.931,109.425 73.798,109.425 73.636 C 109.425 73.473,109.674 73.027,109.977 72.644 C 110.280 72.261,110.529 71.856,110.529 71.744 C 110.529 71.632,110.594 71.540,110.673 71.540 C 110.752 71.540,110.973 71.271,111.163 70.943 C 111.353 70.614,111.805 69.958,112.168 69.485 C 113.602 67.616,113.754 67.423,113.934 67.232 C 114.036 67.123,114.408 66.662,114.759 66.207 C 115.528 65.210,120.669 60.044,121.533 59.400 C 121.871 59.148,122.258 58.839,122.394 58.713 C 122.529 58.586,122.699 58.483,122.770 58.483 C 122.842 58.483,123.092 58.276,123.326 58.023 C 123.561 57.770,123.826 57.563,123.917 57.563 C 124.007 57.563,124.321 57.354,124.615 57.099 C 124.909 56.843,125.336 56.586,125.563 56.527 C 125.791 56.468,125.977 56.353,125.977 56.271 C 125.977 56.188,126.225 56.067,126.529 56.000 C 126.832 55.933,127.080 55.803,127.080 55.710 C 127.080 55.616,127.246 55.540,127.448 55.540 C 127.651 55.540,127.816 55.465,127.816 55.372 C 127.816 55.280,128.147 55.149,128.551 55.081 C 128.955 55.012,129.332 54.881,129.389 54.789 C 129.446 54.696,129.681 54.621,129.911 54.621 C 130.880 54.621,130.431 53.794,129.352 53.592 C 129.011 53.528,128.686 53.402,128.631 53.312 C 128.575 53.223,128.328 53.149,128.081 53.149 C 127.834 53.149,127.632 53.074,127.632 52.983 C 127.632 52.891,127.198 52.757,126.667 52.685 C 126.136 52.612,125.642 52.460,125.570 52.346 C 125.447 52.150,85.228 51.986,82.943 52.171 M157.977 54.233 C 157.977 54.323,157.763 54.451,157.501 54.516 C 157.239 54.582,156.806 54.839,156.537 55.088 C 156.269 55.337,155.990 55.540,155.917 55.540 C 155.710 55.540,154.115 57.140,154.115 57.348 C 154.115 57.449,154.051 57.560,153.974 57.594 C 153.896 57.628,153.547 58.110,153.198 58.667 C 152.849 59.223,152.507 59.720,152.437 59.771 C 152.367 59.821,152.251 60.173,152.180 60.552 C 152.109 60.931,151.987 61.241,151.908 61.241 C 151.790 61.241,151.571 61.994,151.454 62.805 C 151.439 62.906,151.364 63.125,151.287 63.292 C 151.145 63.600,151.248 71.694,151.403 72.368 C 151.767 73.956,152.289 75.634,152.486 75.853 C 152.573 75.949,152.644 76.177,152.644 76.359 C 152.644 76.541,152.726 76.690,152.828 76.690 C 152.929 76.690,153.013 76.793,153.016 76.920 C 153.022 77.285,154.215 79.103,154.355 78.963 C 154.425 78.893,154.483 78.973,154.483 79.142 C 154.483 79.500,155.845 80.920,156.189 80.920 C 156.319 80.920,156.542 81.082,156.685 81.281 C 156.828 81.479,157.177 81.693,157.461 81.755 C 157.745 81.817,157.977 81.944,157.977 82.035 C 157.977 82.127,158.308 82.255,158.713 82.320 C 159.117 82.385,159.448 82.501,159.448 82.577 C 159.448 82.716,159.802 82.807,161.563 83.120 C 162.069 83.210,167.588 83.290,173.828 83.297 C 181.179 83.306,185.214 83.375,185.287 83.494 C 185.350 83.595,185.595 83.678,185.833 83.678 C 186.399 83.678,188.138 84.585,188.138 84.880 C 188.138 85.007,188.262 85.158,188.414 85.216 C 188.566 85.274,188.690 85.531,188.690 85.787 C 188.690 86.043,188.772 86.253,188.874 86.253 C 189.104 86.253,189.119 88.400,188.890 88.542 C 188.797 88.599,188.667 88.966,188.601 89.358 C 188.472 90.124,187.628 91.142,186.889 91.423 C 186.652 91.513,180.231 91.586,172.582 91.586 L 158.705 91.586 158.495 92.046 C 158.380 92.299,158.216 92.506,158.131 92.506 C 158.046 92.506,157.977 92.662,157.977 92.854 C 157.977 93.045,157.853 93.250,157.701 93.308 C 157.549 93.366,157.425 93.540,157.425 93.695 C 157.425 93.850,157.343 93.977,157.241 93.977 C 157.140 93.977,157.057 94.143,157.057 94.345 C 157.057 94.547,156.995 94.714,156.920 94.716 C 156.844 94.717,156.575 95.152,156.322 95.681 C 156.069 96.210,155.821 96.685,155.770 96.736 C 155.584 96.921,155.205 97.572,155.100 97.885 C 155.040 98.062,154.918 98.207,154.829 98.207 C 154.740 98.207,154.667 98.325,154.667 98.470 C 154.667 98.614,154.563 98.843,154.437 98.978 C 154.310 99.113,154.042 99.554,153.841 99.957 C 153.640 100.360,153.433 100.731,153.381 100.782 C 153.289 100.872,152.838 101.678,152.328 102.663 C 152.186 102.939,151.991 103.213,151.896 103.272 C 151.802 103.330,151.724 103.539,151.724 103.735 C 151.724 104.087,152.110 104.092,177.668 104.092 C 204.855 104.092,204.138 104.112,204.138 103.369 C 204.138 103.261,204.212 103.172,204.302 103.172 C 204.392 103.172,204.516 102.974,204.577 102.731 C 204.638 102.488,205.019 101.705,205.424 100.990 C 205.829 100.275,206.161 99.611,206.161 99.515 C 206.161 99.419,206.223 99.313,206.299 99.280 C 206.516 99.183,207.080 98.089,207.080 97.765 C 207.080 97.603,207.157 97.471,207.250 97.471 C 207.343 97.471,207.474 97.223,207.540 96.920 C 207.607 96.616,207.738 96.368,207.831 96.368 C 207.924 96.368,208.000 96.289,208.000 96.192 C 208.000 96.095,208.248 95.595,208.552 95.080 C 208.855 94.566,209.103 94.024,209.103 93.877 C 209.103 93.730,209.169 93.609,209.250 93.609 C 209.330 93.609,209.549 93.237,209.737 92.782 C 209.925 92.326,210.149 91.954,210.235 91.954 C 210.321 91.954,210.391 91.822,210.391 91.661 C 210.391 91.377,210.917 90.302,211.148 90.115 C 211.210 90.064,211.324 89.816,211.402 89.563 C 211.480 89.310,211.599 89.062,211.667 89.011 C 211.837 88.884,212.414 87.621,212.414 87.375 C 212.414 87.263,212.497 87.172,212.598 87.172 C 212.699 87.172,212.782 87.054,212.782 86.910 C 212.782 86.765,212.885 86.538,213.011 86.404 C 213.138 86.270,213.531 85.540,213.885 84.782 C 214.239 84.023,214.591 83.375,214.667 83.341 C 214.743 83.307,214.805 83.162,214.805 83.019 C 214.805 82.876,214.881 82.759,214.974 82.759 C 215.067 82.759,215.198 82.510,215.264 82.207 C 215.331 81.903,215.462 81.655,215.555 81.655 C 215.648 81.655,215.724 81.496,215.724 81.300 C 215.724 81.105,215.831 80.836,215.961 80.703 C 216.091 80.569,216.690 79.467,217.294 78.253 C 217.897 77.039,218.432 76.005,218.482 75.954 C 218.690 75.747,219.218 74.686,219.218 74.475 C 219.218 74.186,220.083 73.379,220.393 73.379 C 220.523 73.379,220.867 73.855,221.157 74.437 C 221.448 75.018,221.740 75.536,221.806 75.586 C 221.873 75.637,221.988 75.873,222.063 76.112 C 222.137 76.350,222.335 76.704,222.501 76.899 C 222.668 77.094,222.816 77.313,222.829 77.385 C 222.916 77.845,223.146 78.345,223.271 78.345 C 223.353 78.345,223.474 78.593,223.540 78.897 C 223.607 79.200,223.718 79.448,223.787 79.448 C 223.920 79.448,224.552 80.804,224.552 81.089 C 224.552 81.181,224.614 81.284,224.690 81.318 C 224.884 81.405,225.471 82.555,225.471 82.850 C 225.471 82.985,225.535 83.123,225.614 83.157 C 225.692 83.191,226.139 83.963,226.607 84.874 C 228.345 88.252,228.509 88.553,228.644 88.613 C 228.720 88.647,228.782 88.817,228.782 88.992 C 228.782 89.166,228.903 89.470,229.052 89.666 C 229.360 90.074,229.424 90.851,229.149 90.851 C 229.048 90.851,228.966 90.975,228.966 91.126 C 228.966 91.278,228.945 91.420,228.920 91.441 C 228.894 91.462,225.729 91.524,221.885 91.578 L 214.897 91.678 214.529 92.414 C 214.327 92.818,214.101 93.176,214.029 93.209 C 213.956 93.241,213.843 93.556,213.777 93.907 C 213.711 94.258,213.612 94.501,213.557 94.446 C 213.442 94.331,212.782 95.737,212.782 96.097 C 212.782 96.229,212.711 96.365,212.626 96.398 C 212.444 96.470,211.310 98.805,211.310 99.107 C 211.310 99.219,211.228 99.310,211.126 99.310 C 211.025 99.310,210.943 99.476,210.943 99.678 C 210.943 99.880,210.860 100.046,210.759 100.046 C 210.657 100.046,210.574 100.149,210.574 100.276 C 210.573 100.402,210.200 101.239,209.746 102.136 C 209.291 103.032,208.920 103.839,208.920 103.929 C 208.920 104.023,218.771 104.092,232.182 104.092 L 255.444 104.092 255.492 96.153 C 255.546 87.182,255.475 87.528,256.956 89.106 C 257.693 89.891,268.481 100.705,269.837 102.018 C 269.964 102.142,270.152 102.327,270.253 102.430 C 270.354 102.533,270.795 102.949,271.233 103.355 L 272.030 104.092 281.348 104.092 L 290.667 104.092 291.357 102.667 C 291.737 101.883,292.047 101.138,292.047 101.011 C 292.046 100.885,292.122 100.782,292.215 100.782 C 292.308 100.782,292.439 100.533,292.506 100.230 C 292.572 99.926,292.683 99.678,292.751 99.678 C 292.820 99.678,292.988 99.409,293.126 99.080 C 293.263 98.752,293.531 98.170,293.722 97.787 C 293.913 97.405,294.069 96.977,294.069 96.837 C 294.069 96.697,294.138 96.555,294.222 96.521 C 294.397 96.451,295.356 94.465,295.356 94.172 C 295.356 94.065,295.439 93.977,295.540 93.977 C 295.641 93.977,295.724 93.872,295.724 93.744 C 295.724 93.616,295.890 93.203,296.092 92.826 C 296.294 92.448,296.460 92.015,296.460 91.863 C 296.460 91.711,296.522 91.585,296.598 91.584 C 296.674 91.583,296.891 91.231,297.082 90.802 C 297.814 89.156,298.028 88.734,298.161 88.674 C 298.237 88.641,298.299 88.413,298.299 88.169 C 298.299 87.924,298.375 87.724,298.468 87.724 C 298.561 87.724,298.692 87.476,298.759 87.172 C 298.825 86.869,298.956 86.621,299.049 86.621 C 299.142 86.621,299.218 86.517,299.218 86.389 C 299.218 86.262,299.591 85.428,300.046 84.536 C 300.501 83.644,300.874 82.797,300.874 82.653 C 300.874 82.509,300.937 82.391,301.014 82.391 C 301.181 82.391,301.793 81.029,301.793 80.658 C 301.793 80.515,301.855 80.371,301.931 80.337 C 302.148 80.241,302.713 79.147,302.713 78.822 C 302.713 78.661,302.789 78.529,302.882 78.529 C 302.975 78.529,303.106 78.280,303.172 77.977 C 303.239 77.674,303.350 77.425,303.418 77.425 C 303.486 77.425,303.656 77.156,303.794 76.828 C 304.311 75.601,304.832 74.573,304.966 74.513 C 305.041 74.480,305.106 74.356,305.110 74.238 C 305.135 73.333,306.249 72.983,306.667 73.747 C 307.121 74.578,307.494 75.455,307.494 75.691 C 307.494 75.819,307.556 75.951,307.632 75.985 C 307.797 76.058,308.598 77.980,308.598 78.302 C 308.598 78.427,308.680 78.529,308.782 78.529 C 308.883 78.529,308.966 78.694,308.966 78.897 C 308.966 79.099,309.042 79.264,309.135 79.264 C 309.228 79.264,309.359 79.513,309.425 79.816 C 309.492 80.120,309.623 80.368,309.716 80.368 C 309.809 80.368,309.885 80.450,309.885 80.550 C 309.885 80.847,310.512 82.207,310.649 82.207 C 310.719 82.207,310.830 82.455,310.897 82.759 C 310.963 83.062,311.094 83.310,311.187 83.310 C 311.280 83.310,311.356 83.401,311.356 83.512 C 311.356 83.759,311.933 85.021,312.104 85.149 C 312.171 85.200,312.290 85.448,312.368 85.701 C 312.446 85.954,312.566 86.202,312.636 86.253 C 312.820 86.387,313.931 88.726,313.931 88.980 C 313.931 89.098,314.014 89.195,314.115 89.195 C 314.216 89.195,314.299 89.313,314.299 89.456 C 314.299 89.599,314.361 89.744,314.437 89.778 C 315.056 90.053,315.488 91.954,314.932 91.954 C 314.786 91.954,314.667 92.037,314.667 92.138 C 314.667 92.252,313.686 92.322,312.092 92.322 C 310.498 92.322,309.517 92.252,309.517 92.138 C 309.517 92.020,307.863 91.954,304.923 91.954 L 300.329 91.954 300.213 92.414 C 300.150 92.667,300.034 92.874,299.956 92.874 C 299.813 92.874,299.529 93.579,299.566 93.839 C 299.577 93.915,299.503 93.977,299.402 93.977 C 299.301 93.977,299.218 94.143,299.218 94.345 C 299.218 94.547,299.142 94.713,299.049 94.713 C 298.956 94.713,298.825 94.961,298.759 95.264 C 298.692 95.568,298.561 95.816,298.468 95.816 C 298.375 95.816,298.299 95.940,298.299 96.092 C 298.299 96.244,298.223 96.368,298.130 96.368 C 298.036 96.368,297.902 96.637,297.831 96.966 C 297.759 97.294,297.649 97.605,297.586 97.655 C 297.523 97.706,297.326 98.016,297.149 98.345 C 296.972 98.674,296.683 99.211,296.506 99.540 C 296.329 99.869,296.124 100.165,296.052 100.197 C 295.979 100.230,295.866 100.540,295.801 100.887 C 295.736 101.234,295.610 101.517,295.520 101.517 C 295.430 101.517,295.356 101.641,295.356 101.793 C 295.356 101.945,295.280 102.069,295.187 102.069 C 295.094 102.069,294.963 102.317,294.897 102.621 C 294.830 102.924,294.699 103.172,294.606 103.172 C 294.513 103.172,294.437 103.379,294.437 103.632 L 294.437 104.092 314.759 104.092 L 335.080 104.092 335.080 103.632 C 335.080 103.379,334.998 103.172,334.897 103.172 C 334.795 103.172,334.713 103.048,334.713 102.897 C 334.713 102.745,334.636 102.621,334.543 102.621 C 334.450 102.621,334.320 102.372,334.253 102.069 C 334.186 101.766,334.056 101.517,333.962 101.517 C 333.869 101.517,333.793 101.385,333.793 101.224 C 333.793 100.940,333.267 99.866,333.036 99.678 C 332.974 99.628,332.865 99.379,332.794 99.126 C 332.616 98.496,332.076 97.393,331.908 97.318 C 331.832 97.284,331.770 97.139,331.770 96.996 C 331.770 96.853,331.687 96.736,331.586 96.736 C 331.485 96.736,331.402 96.628,331.402 96.496 C 331.402 96.285,330.074 93.405,329.520 92.414 C 328.975 91.440,328.830 91.101,328.829 90.805 C 328.828 90.628,328.763 90.483,328.685 90.483 C 328.606 90.483,328.379 90.111,328.179 89.657 C 327.979 89.203,327.754 88.830,327.678 88.829 C 327.602 88.828,327.540 88.737,327.540 88.625 C 327.540 88.360,327.021 87.247,326.517 86.432 C 326.297 86.075,326.058 85.517,325.986 85.191 C 325.914 84.864,325.780 84.598,325.687 84.598 C 325.593 84.598,325.517 84.474,325.517 84.322 C 325.517 84.170,325.438 84.046,325.342 84.046 C 325.245 84.046,325.112 83.756,325.045 83.402 C 324.979 83.048,324.858 82.759,324.776 82.759 C 324.694 82.759,324.572 82.510,324.506 82.207 C 324.439 81.903,324.328 81.655,324.259 81.655 C 324.126 81.655,323.494 80.300,323.494 80.014 C 323.494 79.922,323.432 79.819,323.356 79.785 C 323.156 79.697,322.575 78.545,322.575 78.238 C 322.575 78.094,322.499 77.977,322.405 77.977 C 322.312 77.977,322.182 77.729,322.115 77.425 C 322.048 77.122,321.918 76.874,321.824 76.874 C 321.731 76.874,321.655 76.783,321.655 76.671 C 321.655 76.451,321.093 75.182,320.929 75.034 C 320.753 74.875,320.000 73.257,320.000 73.037 C 320.000 72.922,319.937 72.828,319.859 72.828 C 319.712 72.828,319.080 71.485,319.080 71.171 C 319.080 71.071,318.998 70.989,318.897 70.989 C 318.795 70.989,318.713 70.864,318.713 70.713 C 318.713 70.561,318.639 70.437,318.549 70.437 C 318.459 70.437,318.331 70.147,318.265 69.793 C 318.199 69.439,318.072 69.149,317.983 69.149 C 317.895 69.149,317.768 68.901,317.701 68.598 C 317.635 68.294,317.504 68.046,317.411 68.046 C 317.318 68.046,317.241 67.880,317.241 67.678 C 317.241 67.476,317.165 67.310,317.072 67.310 C 316.979 67.310,316.848 67.062,316.782 66.759 C 316.715 66.455,316.602 66.207,316.532 66.207 C 316.461 66.207,316.242 65.793,316.046 65.287 C 315.850 64.782,315.625 64.368,315.546 64.368 C 315.467 64.368,315.401 64.264,315.399 64.138 C 315.397 64.011,314.942 63.002,314.388 61.896 C 313.833 60.789,313.379 59.775,313.379 59.643 C 313.379 59.510,313.306 59.402,313.215 59.402 C 313.125 59.402,312.994 59.176,312.925 58.898 C 312.855 58.621,312.742 58.352,312.674 58.301 C 312.606 58.249,312.281 57.664,311.953 57.000 C 311.294 55.669,310.748 54.989,310.338 54.989 C 310.190 54.989,310.069 54.912,310.069 54.818 C 310.069 54.293,308.875 54.069,306.073 54.069 L 303.236 54.069 302.677 54.599 C 302.369 54.890,302.041 55.200,301.948 55.288 C 301.439 55.770,300.737 56.700,300.416 57.319 C 300.214 57.706,300.001 58.064,299.942 58.115 C 299.790 58.246,299.522 58.916,299.557 59.080 C 299.573 59.156,299.522 59.218,299.444 59.218 C 299.365 59.218,299.137 59.590,298.938 60.044 C 298.738 60.498,298.513 60.871,298.437 60.872 C 298.361 60.873,298.299 60.998,298.299 61.149 C 298.299 61.301,298.220 61.425,298.123 61.425 C 298.027 61.425,297.893 61.715,297.827 62.069 C 297.761 62.423,297.639 62.713,297.557 62.713 C 297.476 62.713,297.354 62.961,297.287 63.264 C 297.221 63.568,297.090 63.816,296.997 63.816 C 296.904 63.816,296.828 63.940,296.828 64.092 C 296.828 64.244,296.745 64.368,296.644 64.368 C 296.543 64.368,296.460 64.495,296.460 64.652 C 296.460 64.937,295.282 67.251,294.971 67.577 C 294.880 67.673,294.805 67.942,294.805 68.175 C 294.805 68.407,294.722 68.598,294.621 68.598 C 294.520 68.598,294.437 68.715,294.437 68.858 C 294.437 69.002,294.375 69.146,294.299 69.180 C 294.108 69.265,293.555 70.421,293.412 71.034 C 293.347 71.313,293.220 71.540,293.129 71.540 C 293.039 71.540,292.966 71.664,292.966 71.816 C 292.966 71.968,292.892 72.092,292.802 72.092 C 292.712 72.092,292.584 72.382,292.518 72.736 C 292.451 73.090,292.325 73.379,292.236 73.379 C 292.148 73.379,292.021 73.628,291.954 73.931 C 291.887 74.234,291.757 74.483,291.664 74.483 C 291.570 74.483,291.494 74.607,291.494 74.759 C 291.494 74.910,291.415 75.034,291.319 75.034 C 291.222 75.034,291.089 75.324,291.022 75.678 C 290.956 76.032,290.835 76.322,290.753 76.322 C 290.671 76.322,290.549 76.570,290.483 76.874 C 290.416 77.177,290.305 77.425,290.236 77.425 C 290.099 77.425,289.471 78.785,289.471 79.082 C 289.471 79.182,289.395 79.264,289.302 79.264 C 289.209 79.264,289.078 79.513,289.011 79.816 C 288.945 80.120,288.834 80.368,288.764 80.368 C 288.631 80.368,288.000 81.723,288.000 82.009 C 288.000 82.101,287.938 82.204,287.862 82.238 C 287.645 82.334,287.080 83.428,287.080 83.753 C 287.080 83.914,286.998 84.046,286.897 84.046 C 286.795 84.046,286.713 84.152,286.713 84.281 C 286.713 84.410,286.464 84.994,286.161 85.579 C 285.857 86.164,285.609 86.762,285.609 86.908 C 285.609 87.053,285.530 87.172,285.434 87.172 C 285.337 87.172,285.204 87.462,285.137 87.816 C 285.071 88.170,284.962 88.460,284.894 88.460 C 284.827 88.460,284.609 88.831,284.409 89.286 C 284.209 89.740,283.993 90.112,283.929 90.113 C 283.864 90.114,283.757 90.405,283.690 90.759 C 283.624 91.113,283.491 91.402,283.394 91.402 C 283.297 91.402,283.218 91.526,283.218 91.678 C 283.218 91.830,283.145 91.954,283.055 91.954 C 282.965 91.954,282.838 92.238,282.773 92.584 C 282.708 92.931,282.596 93.241,282.523 93.274 C 282.347 93.353,281.749 94.501,281.741 94.774 C 281.731 95.123,281.069 95.816,280.744 95.816 C 280.389 95.816,280.140 95.623,279.115 94.552 C 278.691 94.110,278.014 93.427,277.609 93.033 C 277.205 92.640,276.791 92.233,276.690 92.128 C 276.589 92.024,276.266 91.714,275.973 91.440 C 275.679 91.167,275.348 90.836,275.237 90.707 C 275.126 90.577,274.797 90.235,274.507 89.947 C 273.916 89.360,273.976 89.420,272.633 88.067 C 272.094 87.525,271.214 86.655,270.677 86.134 C 270.140 85.613,269.477 84.951,269.203 84.663 C 268.562 83.987,268.345 83.771,267.700 83.165 C 267.408 82.891,266.407 81.901,265.474 80.966 C 264.541 80.030,263.683 79.264,263.567 79.264 C 262.973 79.264,263.403 78.393,264.576 77.222 C 268.031 73.770,271.221 70.580,271.379 70.418 C 271.765 70.024,276.550 65.243,276.767 65.034 C 276.886 64.921,277.745 64.052,278.675 63.104 C 279.606 62.156,280.476 61.287,280.609 61.173 C 280.742 61.059,281.065 60.739,281.327 60.462 C 281.589 60.186,282.908 58.840,284.258 57.473 C 285.608 56.106,286.713 54.913,286.713 54.824 C 286.713 54.734,286.842 54.610,287.000 54.550 C 288.015 54.160,286.527 54.069,279.168 54.069 L 271.277 54.069 270.719 54.614 C 270.412 54.915,270.161 55.232,270.161 55.320 C 270.161 55.408,269.933 55.687,269.655 55.940 C 269.377 56.193,268.927 56.641,268.655 56.936 C 268.383 57.230,268.052 57.567,267.920 57.683 C 267.787 57.799,267.478 58.157,267.233 58.478 C 266.988 58.798,266.119 59.756,265.302 60.606 C 264.485 61.456,263.464 62.546,263.035 63.029 C 261.746 64.478,260.236 66.108,258.437 67.992 C 257.501 68.971,256.736 69.830,256.736 69.901 C 256.736 70.151,256.134 70.256,255.885 70.050 C 255.597 69.811,255.500 58.667,255.786 58.667 C 255.871 58.667,255.958 57.632,255.979 56.368 L 256.018 54.069 250.216 54.069 L 244.414 54.069 244.414 72.828 C 244.414 83.466,244.344 91.586,244.252 91.586 C 243.985 91.586,243.281 90.618,243.016 89.885 C 242.952 89.708,242.833 89.563,242.752 89.563 C 242.670 89.563,242.549 89.315,242.483 89.011 C 242.416 88.708,242.305 88.460,242.236 88.460 C 242.099 88.460,241.471 87.100,241.471 86.803 C 241.471 86.703,241.395 86.621,241.302 86.621 C 241.209 86.621,241.078 86.372,241.011 86.069 C 240.945 85.766,240.834 85.517,240.765 85.517 C 240.695 85.517,240.350 84.917,239.998 84.184 C 239.645 83.451,239.294 82.823,239.218 82.789 C 239.143 82.756,239.080 82.611,239.080 82.467 C 239.080 82.324,239.004 82.207,238.911 82.207 C 238.818 82.207,238.687 81.959,238.621 81.655 C 238.554 81.352,238.423 81.103,238.330 81.103 C 238.237 81.103,238.161 80.986,238.161 80.842 C 238.161 80.568,237.605 79.424,237.394 79.263 C 237.326 79.211,237.213 78.941,237.144 78.663 C 237.074 78.385,236.945 78.113,236.858 78.059 C 236.771 78.006,236.557 77.655,236.382 77.280 C 236.208 76.905,236.018 76.556,235.961 76.506 C 235.903 76.455,235.692 76.063,235.491 75.634 C 235.291 75.206,235.074 74.854,235.009 74.853 C 234.944 74.852,234.837 74.561,234.771 74.207 C 234.704 73.853,234.592 73.562,234.520 73.561 C 234.449 73.561,234.227 73.188,234.028 72.734 C 233.828 72.280,233.600 71.908,233.522 71.908 C 233.444 71.908,233.379 71.776,233.379 71.615 C 233.379 71.454,233.214 71.112,233.011 70.855 C 232.809 70.598,232.644 70.233,232.644 70.044 C 232.644 69.856,232.561 69.701,232.460 69.701 C 232.359 69.701,232.276 69.577,232.276 69.425 C 232.276 69.274,232.200 69.149,232.107 69.149 C 232.013 69.149,231.883 68.901,231.816 68.598 C 231.749 68.294,231.619 68.046,231.526 68.046 C 231.433 68.046,231.356 67.955,231.356 67.844 C 231.356 67.622,230.793 66.354,230.629 66.207 C 230.573 66.156,230.114 65.287,229.610 64.276 C 229.106 63.264,228.631 62.409,228.554 62.375 C 228.477 62.342,228.414 62.197,228.414 62.054 C 228.414 61.910,228.335 61.793,228.238 61.793 C 228.142 61.793,228.008 61.503,227.942 61.149 C 227.875 60.795,227.768 60.505,227.704 60.504 C 227.639 60.503,227.423 60.131,227.223 59.676 C 227.023 59.222,226.802 58.851,226.732 58.851 C 226.662 58.851,226.549 58.602,226.483 58.299 C 226.416 57.995,226.285 57.747,226.192 57.747 C 226.099 57.747,226.023 57.630,226.023 57.486 C 226.023 57.158,225.426 56.095,225.241 56.093 C 225.166 56.092,225.103 55.978,225.103 55.839 C 225.103 55.700,224.782 55.244,224.389 54.827 L 223.675 54.069 220.264 54.069 C 217.006 54.069,216.847 54.086,216.735 54.439 C 216.670 54.643,216.549 54.768,216.466 54.717 C 216.383 54.665,216.263 54.830,216.200 55.082 C 216.137 55.334,216.004 55.540,215.905 55.540 C 215.805 55.540,215.724 55.664,215.724 55.816 C 215.724 55.968,215.651 56.092,215.561 56.092 C 215.471 56.092,215.343 56.382,215.277 56.736 C 215.210 57.090,215.077 57.379,214.980 57.379 C 214.884 57.379,214.805 57.503,214.805 57.655 C 214.805 57.807,214.741 57.931,214.664 57.931 C 214.587 57.931,214.323 58.366,214.077 58.897 C 213.832 59.428,213.492 60.069,213.322 60.322 C 213.153 60.575,212.950 60.989,212.873 61.241 C 212.795 61.494,212.681 61.743,212.619 61.793 C 212.496 61.893,212.074 62.644,211.326 64.092 C 211.064 64.598,210.795 65.054,210.727 65.105 C 210.659 65.157,210.547 65.426,210.477 65.703 C 210.408 65.980,210.284 66.207,210.202 66.207 C 210.119 66.207,209.998 66.455,209.931 66.759 C 209.864 67.062,209.743 67.310,209.662 67.310 C 209.581 67.310,209.466 67.455,209.406 67.632 C 209.347 67.809,209.220 68.078,209.125 68.230 C 209.030 68.382,208.724 68.982,208.446 69.563 C 208.168 70.145,207.874 70.621,207.794 70.621 C 207.714 70.621,207.595 70.910,207.528 71.264 C 207.462 71.618,207.340 71.908,207.259 71.908 C 207.177 71.908,207.055 72.156,206.989 72.460 C 206.922 72.763,206.791 73.011,206.698 73.011 C 206.605 73.011,206.529 73.086,206.529 73.178 C 206.529 73.269,206.247 73.843,205.903 74.452 C 205.558 75.061,205.324 75.607,205.381 75.665 C 205.439 75.723,205.390 75.770,205.272 75.770 C 205.154 75.770,205.057 75.894,205.057 76.046 C 205.057 76.198,204.975 76.322,204.874 76.322 C 204.772 76.322,204.690 76.404,204.690 76.504 C 204.690 76.801,204.062 78.161,203.925 78.161 C 203.856 78.161,203.745 78.409,203.678 78.713 C 203.612 79.016,203.487 79.264,203.402 79.264 C 203.317 79.264,203.193 79.513,203.126 79.816 C 203.060 80.120,202.929 80.368,202.836 80.368 C 202.743 80.368,202.667 80.533,202.667 80.736 C 202.667 80.938,202.590 81.103,202.497 81.103 C 202.404 81.103,202.274 81.352,202.207 81.655 C 202.140 81.959,202.016 82.207,201.931 82.207 C 201.846 82.207,201.722 82.455,201.655 82.759 C 201.589 83.062,201.465 83.310,201.380 83.310 C 201.295 83.310,201.084 83.683,200.910 84.138 C 200.736 84.593,200.529 84.966,200.449 84.966 C 200.370 84.966,200.251 85.214,200.184 85.517 C 200.117 85.821,199.987 86.069,199.893 86.069 C 199.800 86.069,199.724 86.267,199.724 86.509 C 199.724 86.953,199.422 87.172,198.809 87.172 C 198.416 87.172,198.253 86.821,198.253 85.973 C 198.253 85.633,198.180 85.310,198.091 85.255 C 198.002 85.200,197.870 84.451,197.799 83.590 C 197.727 82.729,197.593 81.978,197.501 81.921 C 197.409 81.864,197.333 81.620,197.333 81.379 C 197.333 81.138,197.260 80.896,197.170 80.840 C 197.081 80.785,196.951 80.439,196.882 80.071 C 196.813 79.704,196.689 79.268,196.606 79.104 C 196.522 78.939,196.301 78.474,196.112 78.069 C 195.924 77.664,195.708 77.306,195.632 77.272 C 195.556 77.238,195.494 77.050,195.494 76.852 C 195.494 76.655,195.370 76.447,195.218 76.388 C 195.067 76.330,194.943 76.167,194.943 76.026 C 194.943 75.885,194.855 75.770,194.748 75.770 C 194.641 75.770,194.595 75.702,194.646 75.620 C 194.697 75.537,194.578 75.353,194.381 75.211 C 194.184 75.069,194.023 74.863,194.023 74.752 C 194.023 74.642,193.651 74.272,193.195 73.931 C 192.740 73.590,192.368 73.244,192.368 73.161 C 192.368 73.079,192.211 73.011,192.020 73.011 C 191.828 73.011,191.624 72.887,191.566 72.736 C 191.507 72.584,191.333 72.460,191.178 72.460 C 191.023 72.460,190.897 72.382,190.897 72.287 C 190.897 72.192,190.525 72.059,190.071 71.991 C 189.617 71.923,189.291 71.793,189.346 71.704 C 189.402 71.614,189.210 71.540,188.921 71.540 C 188.632 71.540,188.292 71.437,188.165 71.310 C 187.886 71.032,171.977 71.090,171.687 71.371 C 171.459 71.592,165.019 71.592,164.882 71.370 C 164.825 71.277,164.525 71.145,164.217 71.078 C 161.734 70.532,161.211 67.045,163.471 66.099 C 164.237 65.778,187.954 65.704,187.954 66.023 C 187.954 66.125,188.444 66.207,189.057 66.207 C 189.872 66.207,190.161 66.141,190.161 65.954 C 190.161 65.814,190.277 65.604,190.419 65.486 C 190.709 65.246,191.632 63.435,191.632 63.108 C 191.632 62.992,191.709 62.897,191.803 62.897 C 191.897 62.897,192.119 62.566,192.298 62.161 C 192.476 61.756,192.689 61.425,192.771 61.425 C 192.853 61.425,192.920 61.334,192.920 61.223 C 192.920 61.003,193.482 59.735,193.646 59.586 C 193.750 59.492,193.908 59.205,195.163 56.840 C 195.562 56.088,196.006 55.304,196.151 55.098 C 196.926 53.992,198.343 54.069,177.195 54.069 C 166.064 54.069,157.977 54.138,157.977 54.233 " stroke="none" fill="#0454a4" fill-rule="evenodd"></path><path id="path1" d="M133.149 56.253 C 133.149 56.341,132.918 56.460,132.635 56.517 C 132.205 56.603,131.463 57.236,130.074 58.705 C 129.720 59.079,129.406 59.396,129.057 59.728 C 128.880 59.897,128.736 60.107,128.736 60.194 C 128.736 60.281,128.461 60.619,128.125 60.945 C 127.790 61.271,127.459 61.657,127.391 61.803 C 127.165 62.288,126.800 62.818,126.207 63.526 C 126.080 63.677,125.977 63.887,125.977 63.992 C 125.977 64.098,125.903 64.184,125.813 64.184 C 125.723 64.184,125.597 64.391,125.534 64.644 C 125.470 64.897,125.344 65.103,125.252 65.103 C 125.161 65.103,125.032 65.352,124.966 65.655 C 124.899 65.959,124.768 66.207,124.675 66.207 C 124.582 66.207,124.506 66.324,124.506 66.467 C 124.506 66.611,124.437 66.756,124.353 66.789 C 124.177 66.860,122.760 69.750,122.564 70.437 C 122.492 70.690,122.377 70.938,122.307 70.989 C 122.107 71.135,121.563 72.616,121.563 73.015 C 121.563 73.215,121.481 73.379,121.381 73.379 C 121.282 73.379,121.147 73.712,121.081 74.119 C 121.016 74.526,120.891 74.903,120.803 74.957 C 120.716 75.012,120.644 75.258,120.644 75.505 C 120.644 75.752,120.567 75.954,120.473 75.954 C 120.379 75.954,120.245 76.410,120.176 76.968 C 120.106 77.526,119.981 78.024,119.897 78.076 C 119.814 78.127,119.689 78.747,119.619 79.453 C 119.550 80.158,119.421 80.736,119.333 80.736 C 119.244 80.736,119.172 81.021,119.172 81.371 C 119.172 81.720,119.091 82.196,118.991 82.428 C 118.891 82.660,118.726 84.051,118.625 85.517 C 118.283 90.444,118.018 93.057,117.859 93.057 C 117.772 93.057,117.701 93.466,117.701 93.966 C 117.701 94.466,117.629 94.919,117.541 94.974 C 117.453 95.028,117.324 95.735,117.253 96.544 C 117.182 97.354,117.054 98.060,116.968 98.114 C 116.881 98.167,116.753 98.748,116.683 99.404 C 116.612 100.061,116.482 100.598,116.392 100.598 C 116.303 100.598,116.230 100.841,116.230 101.139 C 116.230 101.436,116.158 101.724,116.070 101.778 C 115.982 101.832,115.856 102.289,115.789 102.793 C 115.722 103.297,115.587 103.759,115.489 103.819 C 115.391 103.880,115.310 104.081,115.310 104.266 C 115.310 104.450,115.187 104.839,115.036 105.128 C 114.885 105.418,114.760 105.841,114.760 106.069 C 114.759 106.297,114.676 106.483,114.575 106.483 C 114.474 106.483,114.390 106.669,114.390 106.897 C 114.389 107.124,114.265 107.547,114.114 107.837 C 113.963 108.127,113.839 108.479,113.839 108.619 C 113.839 108.759,113.763 108.874,113.670 108.874 C 113.577 108.874,113.446 109.122,113.379 109.425 C 113.313 109.729,113.191 109.977,113.109 109.977 C 113.027 109.977,112.906 110.267,112.840 110.621 C 112.773 110.975,112.659 111.264,112.585 111.264 C 112.511 111.264,112.287 111.636,112.087 112.090 C 111.888 112.544,111.662 112.917,111.586 112.918 C 111.510 112.919,111.448 113.081,111.448 113.278 C 111.448 113.475,111.340 113.703,111.208 113.784 C 111.077 113.865,110.824 114.241,110.648 114.621 C 110.472 115.000,110.249 115.310,110.152 115.310 C 110.056 115.310,109.977 115.421,109.977 115.556 C 109.977 115.690,109.731 116.042,109.430 116.337 C 109.130 116.632,108.881 117.018,108.879 117.195 C 108.876 117.372,108.803 117.517,108.717 117.517 C 108.463 117.517,107.683 118.307,107.305 118.948 C 107.113 119.274,106.892 119.540,106.816 119.540 C 106.739 119.540,106.555 119.775,106.406 120.063 C 105.488 121.838,103.429 123.155,102.676 122.448 C 102.233 122.032,102.046 120.241,102.421 120.010 C 102.514 119.952,102.648 119.285,102.719 118.528 C 102.790 117.770,102.921 117.149,103.010 117.149 C 103.099 117.149,103.172 116.823,103.172 116.425 C 103.172 116.026,103.248 115.653,103.340 115.596 C 103.432 115.539,103.566 114.790,103.637 113.930 C 103.709 113.071,103.832 112.368,103.911 112.368 C 103.989 112.368,104.108 111.685,104.175 110.851 C 104.242 110.016,104.388 109.147,104.501 108.920 C 104.746 108.425,104.617 108.247,104.126 108.403 C 103.864 108.486,103.729 108.752,103.637 109.366 C 103.567 109.833,103.434 110.368,103.341 110.556 C 103.248 110.743,103.100 111.044,103.012 111.224 C 102.924 111.405,102.793 111.819,102.721 112.144 C 102.650 112.469,102.526 112.736,102.446 112.736 C 102.365 112.736,102.247 113.067,102.182 113.471 C 102.118 113.876,101.983 114.207,101.883 114.207 C 101.783 114.207,101.701 114.324,101.701 114.467 C 101.701 114.611,101.639 114.756,101.563 114.789 C 101.487 114.823,101.218 115.263,100.966 115.767 C 100.713 116.271,100.402 116.795,100.274 116.931 C 100.147 117.067,100.084 117.246,100.135 117.329 C 100.186 117.411,100.104 117.526,99.953 117.584 C 99.802 117.642,99.678 117.816,99.678 117.971 C 99.678 118.126,99.601 118.253,99.507 118.253 C 99.412 118.253,99.285 118.410,99.224 118.602 C 99.164 118.794,98.827 119.255,98.476 119.626 C 98.126 119.998,97.839 120.366,97.839 120.445 C 97.839 120.672,93.762 124.750,93.149 125.135 C 92.846 125.327,92.532 125.594,92.451 125.730 C 92.370 125.866,92.219 125.977,92.116 125.977 C 92.012 125.977,91.812 126.080,91.671 126.207 C 91.063 126.753,90.855 126.897,90.674 126.897 C 90.569 126.897,90.483 126.979,90.483 127.080 C 90.483 127.182,90.365 127.264,90.220 127.264 C 90.076 127.264,89.848 127.368,89.714 127.494 C 89.581 127.621,88.726 128.094,87.816 128.547 C 86.906 129.000,86.134 129.431,86.102 129.507 C 86.069 129.582,85.746 129.699,85.384 129.767 C 84.742 129.887,84.046 130.329,84.046 130.616 C 84.046 130.694,97.660 130.759,114.299 130.759 L 144.552 130.759 144.552 127.448 C 144.552 125.364,144.620 124.138,144.736 124.138 C 144.857 124.138,144.920 117.027,144.920 103.172 C 144.920 91.423,144.849 82.207,144.760 82.207 C 144.672 82.207,144.563 79.924,144.517 77.135 C 144.464 73.929,144.364 72.017,144.243 71.939 C 144.139 71.872,143.994 71.289,143.923 70.646 C 143.852 70.002,143.716 69.319,143.621 69.129 C 143.526 68.938,143.376 68.634,143.287 68.453 C 143.198 68.272,143.067 67.775,142.995 67.349 C 142.923 66.923,142.809 66.574,142.742 66.574 C 142.675 66.574,142.461 66.181,142.266 65.700 C 142.072 65.220,141.865 64.786,141.807 64.736 C 141.749 64.685,141.494 64.210,141.241 63.681 C 140.989 63.152,140.720 62.717,140.644 62.716 C 140.568 62.714,140.506 62.624,140.506 62.516 C 140.506 62.407,140.402 62.203,140.276 62.062 C 139.773 61.502,139.586 61.252,139.586 61.140 C 139.586 60.978,135.994 57.379,135.832 57.379 C 135.759 57.379,135.395 57.090,135.022 56.737 C 134.377 56.126,133.149 55.808,133.149 56.253 " stroke="none" fill="#a4c434" fill-rule="evenodd"></path><path id="path2" d="M236.690 116.414 C 236.690 116.515,236.483 116.598,236.231 116.598 C 235.701 116.598,234.299 117.166,234.299 117.381 C 234.299 117.461,234.090 117.606,233.834 117.703 C 233.579 117.800,233.315 118.026,233.247 118.204 C 233.179 118.383,233.016 118.638,232.884 118.772 C 232.752 118.905,232.644 119.133,232.644 119.278 C 232.644 119.422,232.581 119.540,232.505 119.540 C 232.428 119.540,232.242 119.809,232.091 120.138 C 231.489 121.448,231.822 126.897,232.505 126.897 C 232.581 126.897,232.644 127.012,232.644 127.154 C 232.644 127.494,234.408 129.287,234.742 129.287 C 234.886 129.287,235.032 129.372,235.066 129.475 C 235.101 129.578,235.563 129.713,236.093 129.776 C 236.623 129.839,237.057 129.962,237.057 130.049 C 237.057 130.136,237.720 130.207,238.529 130.207 C 239.338 130.207,240.000 130.135,240.000 130.048 C 240.000 129.961,240.371 129.838,240.824 129.776 C 241.640 129.664,242.236 129.409,242.719 128.966 C 242.856 128.839,243.057 128.736,243.164 128.736 C 243.855 128.736,244.046 127.992,244.046 125.301 L 244.046 122.657 241.149 122.708 L 238.253 122.759 238.198 123.816 L 238.143 124.874 239.991 124.874 L 241.839 124.874 241.839 125.806 C 241.839 126.672,241.566 127.262,241.163 127.266 C 241.079 127.266,240.763 127.403,240.460 127.569 C 239.746 127.961,236.994 127.991,236.322 127.614 C 235.619 127.220,234.667 126.314,234.667 126.039 C 234.667 125.904,234.589 125.793,234.494 125.793 C 234.399 125.793,234.271 125.400,234.209 124.920 C 234.147 124.439,234.018 123.902,233.922 123.727 C 233.703 123.326,233.694 122.667,233.908 122.667 C 233.996 122.667,234.109 122.244,234.158 121.728 C 234.208 121.211,234.332 120.735,234.433 120.670 C 234.534 120.605,234.674 120.370,234.743 120.147 C 234.813 119.925,235.031 119.692,235.228 119.629 C 235.425 119.567,235.586 119.444,235.586 119.357 C 235.586 119.171,236.637 118.621,236.994 118.621 C 237.130 118.621,237.241 118.538,237.241 118.437 C 237.241 118.336,237.655 118.253,238.161 118.253 C 238.667 118.253,239.080 118.336,239.080 118.437 C 239.080 118.538,239.249 118.621,239.455 118.621 C 240.120 118.621,241.471 119.668,241.471 120.184 C 241.471 120.336,241.554 120.460,241.655 120.460 C 241.756 120.460,241.839 120.584,241.839 120.736 C 241.839 121.079,242.669 121.104,243.364 120.782 C 243.856 120.553,244.112 119.540,243.678 119.540 C 243.577 119.540,243.494 119.343,243.494 119.103 C 243.494 118.862,243.370 118.563,243.218 118.437 C 243.067 118.311,242.943 118.099,242.943 117.967 C 242.943 117.834,242.756 117.667,242.529 117.595 C 242.301 117.523,241.984 117.314,241.824 117.130 C 241.663 116.946,241.188 116.741,240.766 116.673 C 240.345 116.606,240.000 116.479,240.000 116.390 C 240.000 116.302,239.255 116.230,238.345 116.230 C 237.364 116.230,236.690 116.305,236.690 116.414 M210.023 123.218 L 210.023 129.839 214.345 129.839 L 218.667 129.839 218.667 128.828 L 218.667 127.816 215.448 127.816 L 212.230 127.816 212.230 122.207 L 212.230 116.598 211.126 116.598 L 210.023 116.598 210.023 123.218 M220.138 123.208 L 220.138 129.839 221.333 129.839 L 222.529 129.839 222.529 127.356 L 222.529 124.874 224.552 124.874 C 225.664 124.874,226.575 124.801,226.575 124.713 C 226.575 124.625,226.993 124.512,227.505 124.463 C 228.406 124.377,229.885 123.274,229.885 122.689 C 229.885 122.592,229.982 122.481,230.101 122.441 C 230.412 122.338,230.422 118.769,230.112 118.666 C 229.987 118.624,229.885 118.508,229.885 118.407 C 229.885 118.307,229.643 117.983,229.347 117.687 C 229.052 117.391,228.728 117.149,228.627 117.149 C 228.527 117.149,228.410 117.046,228.368 116.920 C 228.311 116.747,227.272 116.676,224.215 116.634 L 220.138 116.578 220.138 123.208 M249.747 117.609 L 249.747 118.621 251.862 118.621 L 253.977 118.621 253.977 124.230 L 253.977 129.839 255.080 129.839 L 256.184 129.839 256.184 124.230 L 256.184 118.621 258.299 118.621 L 260.414 118.621 260.414 117.609 L 260.414 116.598 255.080 116.598 L 249.747 116.598 249.747 117.609 M263.724 117.057 C 263.724 117.310,263.662 117.517,263.585 117.517 C 263.404 117.517,263.029 118.371,262.878 119.128 C 262.812 119.456,262.693 119.724,262.614 119.724 C 262.534 119.724,262.413 120.055,262.345 120.460 C 262.276 120.864,262.145 121.195,262.053 121.195 C 261.961 121.195,261.885 121.361,261.885 121.563 C 261.885 121.766,261.812 121.931,261.722 121.931 C 261.632 121.931,261.503 122.303,261.435 122.759 C 261.367 123.214,261.240 123.586,261.154 123.586 C 261.068 123.586,260.942 123.917,260.874 124.322 C 260.805 124.726,260.674 125.057,260.582 125.057 C 260.489 125.057,260.414 125.264,260.414 125.517 C 260.414 125.770,260.338 125.977,260.246 125.977 C 260.154 125.977,260.022 126.308,259.954 126.713 C 259.886 127.117,259.754 127.448,259.662 127.448 C 259.570 127.448,259.492 127.634,259.488 127.862 C 259.485 128.090,259.361 128.437,259.213 128.633 C 258.567 129.487,258.834 129.839,260.130 129.839 L 261.317 129.839 261.443 129.149 C 261.513 128.770,261.620 128.418,261.682 128.368 C 261.948 128.148,262.255 127.408,262.365 126.721 L 262.484 125.977 265.031 125.977 L 267.579 125.977 267.695 126.437 C 267.758 126.690,267.873 126.897,267.950 126.897 C 268.027 126.897,268.138 127.192,268.196 127.554 C 268.322 128.330,268.721 129.287,268.918 129.287 C 268.995 129.287,269.057 129.411,269.057 129.563 C 269.057 129.778,269.305 129.839,270.186 129.839 L 271.314 129.839 271.196 128.975 C 271.131 128.501,271.003 128.066,270.912 128.010 C 270.821 127.953,270.688 127.597,270.617 127.218 C 270.546 126.839,270.414 126.529,270.324 126.529 C 270.234 126.529,270.161 126.363,270.161 126.161 C 270.161 125.959,270.085 125.793,269.993 125.793 C 269.901 125.793,269.770 125.462,269.701 125.057 C 269.633 124.653,269.509 124.322,269.425 124.322 C 269.342 124.322,269.218 123.991,269.149 123.586 C 269.081 123.182,268.950 122.851,268.857 122.851 C 268.765 122.851,268.690 122.685,268.690 122.483 C 268.690 122.280,268.614 122.115,268.522 122.115 C 268.430 122.115,268.298 121.784,268.230 121.379 C 268.162 120.975,268.030 120.644,267.938 120.644 C 267.846 120.644,267.770 120.470,267.770 120.258 C 267.770 119.905,267.278 118.838,267.015 118.621 C 266.954 118.570,266.847 118.218,266.777 117.839 C 266.707 117.460,266.571 117.149,266.474 117.149 C 266.378 117.149,266.299 117.025,266.299 116.874 C 266.299 116.655,266.033 116.598,265.011 116.598 C 263.761 116.598,263.724 116.611,263.724 117.057 M272.552 123.210 L 272.552 129.839 273.563 129.839 L 274.575 129.839 274.575 125.425 C 274.575 121.107,274.686 120.313,275.128 121.476 C 275.225 121.731,275.423 121.986,275.567 122.041 C 275.711 122.096,275.882 122.354,275.947 122.613 C 276.050 123.022,276.833 124.235,277.170 124.506 C 277.232 124.556,277.342 124.784,277.413 125.011 C 277.484 125.239,277.619 125.425,277.714 125.425 C 277.808 125.425,277.885 125.549,277.885 125.701 C 277.885 125.853,277.962 125.977,278.057 125.977 C 278.151 125.977,278.286 126.159,278.357 126.382 C 278.427 126.605,278.599 126.901,278.737 127.039 C 278.875 127.177,278.989 127.403,278.989 127.541 C 278.989 127.679,279.154 127.844,279.356 127.908 C 279.559 127.972,279.724 128.181,279.724 128.371 C 279.724 128.562,279.839 128.784,279.980 128.864 C 280.120 128.945,280.266 129.177,280.303 129.379 C 280.362 129.697,280.540 129.755,281.611 129.802 L 282.851 129.856 282.851 123.227 L 282.851 116.598 281.839 116.598 L 280.828 116.598 280.828 121.011 C 280.828 125.119,280.687 126.301,280.355 124.979 C 280.293 124.733,280.126 124.488,279.983 124.433 C 279.841 124.378,279.724 124.211,279.724 124.062 C 279.724 123.913,279.570 123.683,279.383 123.551 C 279.195 123.418,278.982 123.124,278.911 122.897 C 278.839 122.669,278.712 122.483,278.628 122.483 C 278.545 122.483,278.425 122.276,278.361 122.023 C 278.298 121.770,278.165 121.563,278.065 121.563 C 277.966 121.563,277.885 121.439,277.885 121.287 C 277.885 121.136,277.808 121.011,277.714 121.011 C 277.619 121.011,277.483 120.825,277.411 120.598 C 277.340 120.370,277.142 120.060,276.972 119.908 C 276.803 119.756,276.610 119.487,276.545 119.310 C 276.479 119.133,276.340 118.989,276.236 118.989 C 276.131 118.989,276.046 118.819,276.046 118.612 C 276.046 118.405,275.846 118.036,275.601 117.791 C 275.356 117.546,275.128 117.198,275.093 117.018 C 275.042 116.748,274.809 116.680,273.791 116.635 L 272.552 116.581 272.552 123.210 M285.241 123.218 L 285.241 129.839 286.253 129.839 L 287.264 129.839 287.264 127.728 L 287.264 125.617 288.280 124.602 C 289.457 123.425,289.397 123.451,289.547 124.046 C 289.610 124.299,289.743 124.506,289.843 124.506 C 289.942 124.506,290.023 124.594,290.023 124.703 C 290.023 124.811,290.126 125.015,290.253 125.156 C 290.801 125.767,290.943 125.973,290.943 126.159 C 290.943 126.268,291.067 126.404,291.218 126.462 C 291.370 126.520,291.494 126.664,291.494 126.780 C 291.494 126.897,291.691 127.204,291.931 127.464 C 292.172 127.723,292.426 128.115,292.495 128.335 C 292.565 128.555,292.700 128.736,292.794 128.736 C 292.888 128.736,292.966 128.817,292.966 128.917 C 292.966 129.553,293.607 129.839,295.029 129.839 C 296.576 129.839,296.848 129.616,296.092 128.969 C 295.890 128.796,295.724 128.549,295.724 128.420 C 295.724 128.292,295.559 128.084,295.356 127.957 C 295.154 127.831,294.989 127.627,294.989 127.504 C 294.989 127.382,294.782 127.074,294.529 126.821 C 294.276 126.568,294.069 126.293,294.069 126.210 C 294.069 126.127,293.903 125.917,293.701 125.744 C 293.499 125.571,293.333 125.324,293.333 125.195 C 293.333 125.066,293.126 124.805,292.874 124.616 C 292.621 124.426,292.414 124.178,292.414 124.064 C 292.414 123.951,292.207 123.635,291.954 123.362 C 291.701 123.090,291.494 122.780,291.494 122.675 C 291.494 122.569,291.420 122.483,291.330 122.483 C 291.240 122.483,291.119 122.362,291.063 122.214 C 290.961 121.949,292.968 119.724,293.310 119.724 C 293.609 119.724,295.904 117.246,295.906 116.920 C 295.908 116.641,295.719 116.598,294.503 116.598 L 293.098 116.598 290.227 119.465 L 287.356 122.332 287.306 119.465 L 287.255 116.598 286.248 116.598 L 285.241 116.598 285.241 123.218 M297.195 123.218 L 297.195 129.839 301.425 129.839 L 305.655 129.839 305.655 128.828 L 305.655 127.816 302.529 127.816 L 299.402 127.816 299.402 122.207 L 299.402 116.598 298.299 116.598 L 297.195 116.598 297.195 123.218 M310.667 116.719 C 310.540 116.771,310.437 117.007,310.437 117.246 C 310.437 117.484,310.363 117.725,310.274 117.780 C 310.184 117.836,310.056 118.172,309.990 118.527 C 309.923 118.882,309.797 119.172,309.710 119.172 C 309.623 119.172,309.495 119.586,309.425 120.092 C 309.356 120.598,309.224 121.011,309.132 121.011 C 309.041 121.011,308.966 121.136,308.966 121.287 C 308.966 121.439,308.893 121.563,308.805 121.563 C 308.717 121.563,308.592 121.894,308.527 122.299 C 308.462 122.703,308.335 123.034,308.245 123.034 C 308.155 123.034,308.024 123.448,307.954 123.954 C 307.884 124.460,307.753 124.874,307.661 124.874 C 307.569 124.874,307.494 124.998,307.494 125.149 C 307.494 125.301,307.419 125.425,307.328 125.425 C 307.236 125.425,307.104 125.839,307.034 126.345 C 306.965 126.851,306.854 127.265,306.787 127.266 C 306.580 127.268,306.197 128.241,306.083 129.057 L 305.973 129.839 307.176 129.839 L 308.379 129.839 308.506 128.920 C 308.575 128.414,308.707 128.000,308.799 128.000 C 308.891 128.000,308.966 127.839,308.966 127.643 C 308.966 127.447,309.038 127.242,309.126 127.187 C 309.214 127.133,309.336 126.838,309.397 126.533 L 309.508 125.977 312.085 125.977 L 314.662 125.977 314.780 126.713 C 314.845 127.117,314.969 127.448,315.056 127.448 C 315.143 127.448,315.267 127.779,315.332 128.184 C 315.396 128.589,315.521 128.920,315.610 128.920 C 315.698 128.920,315.770 129.126,315.770 129.379 C 315.770 129.827,315.805 129.839,317.082 129.839 L 318.393 129.839 318.283 129.164 C 318.223 128.793,318.100 128.441,318.010 128.383 C 317.920 128.324,317.789 127.966,317.719 127.586 C 317.650 127.207,317.514 126.897,317.417 126.897 C 317.320 126.897,317.241 126.690,317.241 126.437 C 317.241 126.184,317.165 125.977,317.072 125.977 C 316.979 125.977,316.848 125.729,316.782 125.425 C 316.715 125.122,316.595 124.874,316.515 124.874 C 316.434 124.874,316.316 124.543,316.251 124.138 C 316.187 123.733,316.052 123.402,315.952 123.402 C 315.852 123.402,315.770 123.195,315.770 122.943 C 315.770 122.690,315.688 122.483,315.588 122.483 C 315.488 122.483,315.354 122.152,315.289 121.747 C 315.224 121.343,315.108 121.011,315.031 121.011 C 314.954 121.011,314.835 120.784,314.768 120.506 C 314.601 119.814,314.234 118.989,314.094 118.989 C 314.030 118.989,313.925 118.657,313.860 118.253 C 313.796 117.848,313.661 117.517,313.561 117.517 C 313.461 117.517,313.379 117.310,313.379 117.057 C 313.379 116.605,311.523 116.374,310.667 116.719 M319.264 123.204 L 319.264 129.839 320.368 129.839 L 321.471 129.839 321.471 127.080 L 321.471 124.322 322.920 124.322 C 323.983 124.322,324.430 124.395,324.598 124.598 C 324.724 124.749,324.941 124.874,325.080 124.874 C 325.219 124.874,325.333 124.999,325.333 125.151 C 325.333 125.304,325.499 125.571,325.701 125.744 C 325.903 125.917,326.069 126.134,326.069 126.226 C 326.069 126.318,326.223 126.527,326.410 126.691 C 326.598 126.855,326.811 127.175,326.883 127.402 C 326.954 127.630,327.084 127.816,327.170 127.816 C 327.256 127.816,327.378 128.048,327.440 128.332 C 327.503 128.616,327.716 128.965,327.915 129.108 C 328.113 129.251,328.276 129.474,328.276 129.604 C 328.276 129.775,328.675 129.839,329.747 129.839 C 331.295 129.839,331.596 129.641,330.857 129.108 C 330.659 128.965,330.445 128.616,330.383 128.332 C 330.321 128.048,330.199 127.816,330.113 127.816 C 330.026 127.816,329.897 127.630,329.825 127.402 C 329.753 127.175,329.556 126.864,329.386 126.713 C 329.217 126.561,329.024 126.292,328.959 126.115 C 328.893 125.938,328.754 125.793,328.649 125.793 C 328.545 125.793,328.460 125.651,328.460 125.477 C 328.460 125.303,328.208 124.946,327.901 124.683 C 327.214 124.097,327.321 123.668,328.197 123.504 C 328.544 123.439,328.828 123.310,328.828 123.217 C 328.828 123.125,329.055 122.838,329.333 122.580 C 329.822 122.127,329.839 122.046,329.839 120.228 L 329.839 118.345 329.012 117.517 L 328.185 116.690 323.724 116.629 L 319.264 116.569 319.264 123.204 M332.322 123.218 L 332.322 129.839 333.517 129.839 L 334.713 129.839 334.713 123.218 L 334.713 116.598 333.517 116.598 L 332.322 116.598 332.322 123.218 M226.943 118.785 C 226.943 118.875,227.143 118.999,227.388 119.060 C 228.228 119.271,228.271 121.779,227.438 122.039 C 227.216 122.108,226.982 122.247,226.917 122.347 C 226.853 122.447,225.839 122.572,224.664 122.624 L 222.529 122.718 222.529 120.669 L 222.529 118.621 224.736 118.621 C 225.949 118.621,226.943 118.694,226.943 118.785 M326.437 118.785 C 326.437 118.875,326.638 118.999,326.884 119.061 C 327.130 119.123,327.390 119.359,327.461 119.587 C 327.532 119.814,327.682 120.062,327.795 120.138 C 327.943 120.238,327.944 120.314,327.798 120.414 C 327.688 120.490,327.541 120.779,327.473 121.057 C 327.405 121.336,327.234 121.563,327.092 121.563 C 326.951 121.563,326.801 121.667,326.759 121.793 C 326.704 121.958,325.951 122.041,324.077 122.087 L 321.471 122.150 321.471 120.385 L 321.471 118.621 323.954 118.621 C 325.320 118.621,326.437 118.694,326.437 118.785 M265.346 120.152 C 265.378 120.422,265.481 120.644,265.575 120.644 C 265.670 120.644,265.747 120.851,265.747 121.103 C 265.747 121.356,265.829 121.563,265.929 121.563 C 266.029 121.563,266.164 121.894,266.228 122.299 C 266.293 122.703,266.418 123.034,266.506 123.034 C 266.594 123.034,266.667 123.241,266.667 123.494 C 266.667 123.951,266.654 123.954,265.011 123.954 C 264.031 123.954,263.356 123.879,263.356 123.770 C 263.356 123.669,263.429 123.586,263.517 123.586 C 263.605 123.586,263.730 123.255,263.795 122.851 C 263.859 122.446,263.985 122.115,264.073 122.115 C 264.162 122.115,264.290 121.743,264.358 121.287 C 264.426 120.832,264.560 120.460,264.655 120.460 C 264.750 120.460,264.828 120.246,264.828 119.985 C 264.828 119.355,265.268 119.498,265.346 120.152 M312.358 120.368 C 312.426 120.823,312.560 121.195,312.655 121.195 C 312.750 121.195,312.828 121.361,312.828 121.563 C 312.828 121.766,312.903 121.931,312.995 121.931 C 313.088 121.931,313.219 122.262,313.287 122.667 C 313.356 123.071,313.487 123.402,313.579 123.402 C 313.672 123.402,313.747 123.526,313.747 123.678 C 313.747 123.903,313.441 123.954,312.092 123.954 C 310.449 123.954,310.437 123.951,310.437 123.494 C 310.437 123.241,310.519 123.034,310.619 123.034 C 310.718 123.034,310.853 122.703,310.918 122.299 C 310.983 121.894,311.107 121.563,311.194 121.563 C 311.281 121.563,311.405 121.232,311.470 120.828 C 311.534 120.423,311.659 120.092,311.748 120.092 C 311.836 120.092,311.908 119.968,311.908 119.816 C 311.908 119.190,312.243 119.601,312.358 120.368 " stroke="none" fill="#2c2c2c" fill-rule="evenodd"></path><path id="path3" d="" stroke="none" fill="#2c8ca8" fill-rule="evenodd"></path><path id="path4" d="" stroke="none" fill="#2c8ca8" fill-rule="evenodd"></path></g></svg>